<svg width="900" height="600" viewBox="0 0 900 600" xmlns="http://www.w3.org/2000/svg">
  <defs>
    <radialGradient id="g" cx="50%" cy="50%" r="70%">
      <stop offset="0%" stop-color="#18ff6d" stop-opacity="0.9"/>
      <stop offset="100%" stop-color="#18ff6d" stop-opacity="0"/>
    </radialGradient>
  </defs>

  <rect width="900" height="600" fill="#050a06"/>

  <g stroke="#18ff6d" stroke-opacity="0.25">
    <line x1="120" y1="80" x2="760" y2="120"/>
    <line x1="200" y1="240" x2="700" y2="380"/>
    <line x1="100" y1="420" x2="820" y2="500"/>
    <line x1="300" y1="50" x2="600" y2="540"/>
  </g>

  <g fill="#18ff6d">
    <circle cx="120" cy="80" r="4"/>
    <circle cx="760" cy="120" r="4"/>
    <circle cx="200" cy="240" r="4"/>
    <circle cx="700" cy="380" r="4"/>
    <circle cx="100" cy="420" r="4"/>
    <circle cx="820" cy="500" r="4"/>
    <circle cx="300" cy="50" r="4"/>
    <circle cx="600" cy="540" r="4"/>
  </g>

  <circle cx="450" cy="300" r="160" stroke="#18ff6d" stroke-width="2" fill="none" stroke-dasharray="10 10"/>
  <circle cx="450" cy="300" r="140" fill="url(#g)" />

  <polyline fill="none" stroke="#00ffb3" stroke-width="3"
    points="200,350 300,310 400,330 500,260 600,300 700,240"/>
</svg>
